<svg xmlns="http://www.w3.org/2000/svg" width="318.834" height="259.004" viewBox="0 0 318.834 259.004">
  <g id="Group_505" data-name="Group 505" transform="translate(-53.594 -193.385)">
    <path id="Path_3556" data-name="Path 3556" d="M371.058,281.032c7.454,43.028-51.966,45.516-41.4,90.457,16.44,69.94-15.859,80.495-98.1,80.495-97,0-200.46-30.037-118.348-113.288,32.242-32.69,38.015-53.915,33.747-81.277-7.407-47.481,31.607-75.034,89.509-59.849C330.281,222.175,357.018,199.991,371.058,281.032Z" transform="translate(0.721 0)" fill="#cae2ff"/>
    <path id="Path_3557" data-name="Path 3557" d="M322.25,424.722c-1.452,2.254-12.177,26.772-32.145,6.977l-20.921-56.65,29.063-2.02S323.395,422.945,322.25,424.722Z" transform="translate(5.213 4.344)" fill="#f36480"/>
    <path id="Path_3558" data-name="Path 3558" d="M303.208,383.518s-7.509,8.619-24.877,11.6L275.5,387.7l26.3-7.332C302.84,382.781,303.208,383.518,303.208,383.518Z" transform="translate(5.366 4.521)" fill="#f44968"/>
    <path id="Path_3559" data-name="Path 3559" d="M281.743,389.687c8.467,44.6,25.6,48.991,25.6,48.991s-9.228,2.4-17.39-7.373c-7.01-8.4-14.5-42.007-14.5-42.007A18.265,18.265,0,0,0,281.743,389.687Z" transform="translate(5.365 4.737)" fill="#f44968"/>
    <g id="Group_497" data-name="Group 497" transform="translate(312.708 296.981)">
      <path id="Path_3560" data-name="Path 3560" d="M313.979,305.2l-6.888-8.463,10.738-1.705Z" transform="translate(-306.578 -294.523)" fill="none" stroke="#fff" stroke-miterlimit="10" stroke-width="1"/>
      <path id="Path_3561" data-name="Path 3561" d="M313.991,305.728a.515.515,0,0,1-.4-.188l-6.888-8.463a.513.513,0,0,1,.316-.83l10.739-1.705a.513.513,0,0,1,.559.687L314.47,305.4a.514.514,0,0,1-.4.324A.548.548,0,0,1,313.991,305.728Z" transform="translate(-306.59 -294.535)" fill="none" stroke="#fff" stroke-miterlimit="10" stroke-width="1"/>
    </g>
    <circle id="Ellipse_204" data-name="Ellipse 204" cx="2.556" cy="2.556" r="2.556" transform="translate(184.581 243.225)" fill="#fff"/>
    <circle id="Ellipse_205" data-name="Ellipse 205" cx="2.556" cy="2.556" r="2.556" transform="translate(116.531 383.341)" fill="#fff"/>
    <rect id="Rectangle_977" data-name="Rectangle 977" width="6.094" height="6.094" transform="translate(327.501 249.142) rotate(-45)" fill="#fff"/>
    <rect id="Rectangle_978" data-name="Rectangle 978" width="6.094" height="6.094" transform="translate(154.039 425.181) rotate(-45)" fill="#fff"/>
    <g id="Group_498" data-name="Group 498" transform="translate(153.527 367.85)">
      <path id="Path_3562" data-name="Path 3562" d="M158.557,374.4l-6.888-8.463,10.738-1.705Z" transform="translate(-151.156 -363.718)" fill="none" stroke="#fff" stroke-miterlimit="10" stroke-width="1"/>
      <path id="Path_3563" data-name="Path 3563" d="M158.569,374.923a.511.511,0,0,1-.4-.189l-6.888-8.463a.511.511,0,0,1,.316-.829l10.738-1.705a.512.512,0,0,1,.559.687l-3.849,10.168a.512.512,0,0,1-.4.324A.444.444,0,0,1,158.569,374.923Z" transform="translate(-151.168 -363.73)" fill="none" stroke="#fff" stroke-miterlimit="10" stroke-width="1"/>
    </g>
    <g id="Group_499" data-name="Group 499" transform="translate(200.478 226.547)">
      <path id="Path_3564" data-name="Path 3564" d="M200.641,233.025a3.631,3.631,0,1,1,3.631-3.632A3.635,3.635,0,0,1,200.641,233.025Zm0-5.931a2.3,2.3,0,1,0,2.3,2.3A2.3,2.3,0,0,0,200.641,227.094Z" transform="translate(-197.01 -225.764)" fill="#fff"/>
    </g>
    <g id="Group_500" data-name="Group 500" transform="translate(305.666 355.339)">
      <path id="Path_3565" data-name="Path 3565" d="M303.345,358.776a3.631,3.631,0,1,1,3.631-3.631A3.634,3.634,0,0,1,303.345,358.776Zm0-5.93a2.3,2.3,0,1,0,2.3,2.3A2.3,2.3,0,0,0,303.345,352.847Z" transform="translate(-299.714 -351.515)" fill="#fff"/>
    </g>
    <g id="Group_501" data-name="Group 501" transform="translate(229.057 312.907)">
      <path id="Path_3566" data-name="Path 3566" d="M224.914,322.658v30.511l34.3.089V327.646a27.513,27.513,0,0,1-34.3-4.988Z" transform="translate(-224.914 -309.781)" fill="#f36480"/>
      <path id="Path_3567" data-name="Path 3567" d="M224.914,310.085v12.877a27.513,27.513,0,0,0,34.3,4.988V310.174Z" transform="translate(-224.914 -310.085)" fill="#f44968"/>
    </g>
    <ellipse id="Ellipse_206" data-name="Ellipse 206" cx="30.333" cy="38.575" rx="30.333" ry="38.575" transform="translate(214.589 253.043)" fill="#f36480"/>
    <path id="Path_3568" data-name="Path 3568" d="M184.941,445.346c2.551.306,25.178,1.86,25.178,1.86s-7.053-37.388,6.705-62.814c0,0-15.379-1.348-29.121-7.032C173.844,413.645,184.941,445.346,184.941,445.346Z" transform="translate(3.074 4.449)" fill="#f36480"/>
    <path id="Path_3569" data-name="Path 3569" d="M184.946,445.189l2.551.254s-6.629-37.479-2.218-60.828c0,0,2.787.254-1.983-.768C176.28,420.329,184.946,445.189,184.946,445.189Z" transform="translate(3.07 4.606)" fill="#f87b98"/>
    <path id="Path_3570" data-name="Path 3570" d="M279.312,349.272a22.437,22.437,0,0,1-14.831-5.566l-20.736,10.313s-15.962-2.271-22.068-10.312c-1.742,3.775-13.334,6.009-13.477,6.009-11.985,0-21.719,19.542-26.179,30.667,0,0,13.985,8.207,25.97,8.207a457.236,457.236,0,0,0-2.845,59.134s43.289,3.539,78.856-2.5c1.374-23.119-6.241-56.635-6.241-56.635.252.005-.256,0,0,0,11.985,0,27.708-8.207,27.708-8.207C301.008,369.257,291.3,349.272,279.312,349.272Z" transform="translate(3.106 3.635)" fill="#1565d8"/>
    <path id="Path_3571" data-name="Path 3571" d="M233.892,358.879s-16.131-15.416-15.656-16.564c4.325-.957,7.347-7.806,7.347-7.806a135.313,135.313,0,0,0,15.619,14.7A79.233,79.233,0,0,0,233.892,358.879Z" transform="translate(3.981 3.412)" fill="#1152aa"/>
    <rect id="Rectangle_979" data-name="Rectangle 979" width="8.324" height="18.437" transform="translate(241.982 352.287)" fill="#1152aa"/>
    <path id="Path_3572" data-name="Path 3572" d="M249.877,358.89s16.131-15.417,15.655-16.565c-4.324-.956-7.346-7.805-7.346-7.805a135.27,135.27,0,0,1-15.62,14.7A79.192,79.192,0,0,1,249.877,358.89Z" transform="translate(4.57 3.413)" fill="#1152aa"/>
    <path id="Path_3573" data-name="Path 3573" d="M303.958,380.858s-19.729,7.289-29.183,6.895a12.354,12.354,0,0,0-.4-3.335c13.764-.249,27.995-7.058,27.995-7.058Z" transform="translate(5.339 4.449)" fill="#1050a7"/>
    <path id="Path_3574" data-name="Path 3574" d="M180.334,383.014s19.729,7.289,29.182,6.895a12.355,12.355,0,0,1,.4-3.335c-13.764-.249-27.995-7.058-27.995-7.058Z" transform="translate(3.065 4.501)" fill="#1050a7"/>
    <path id="Path_3575" data-name="Path 3575" d="M264.426,341.819a6.822,6.822,0,0,1-.856-.473c-4.505,4.509-13.044,12.7-15.374,14.931.2.283.383.548.547.788C252.93,353.67,262.493,343.821,264.426,341.819Z" transform="translate(4.706 3.578)" fill="#fff"/>
    <path id="Path_3576" data-name="Path 3576" d="M219.281,341.812a6.881,6.881,0,0,0,.856-.473c4.506,4.509,13.044,12.7,15.374,14.931-.2.283-.383.547-.547.787C230.779,353.663,221.216,343.813,219.281,341.812Z" transform="translate(4.007 3.578)" fill="#fff"/>
    <path id="Path_3577" data-name="Path 3577" d="M203.158,446.591l5.259.357s.362-38.014,2.914-60.49c0,0-3.068,0-3.615,0C201.439,421.914,203.158,446.591,203.158,446.591Z" transform="translate(3.611 4.669)" fill="#1050a7"/>
    <path id="Path_3578" data-name="Path 3578" d="M186.418,370.453s8.57-18.4,23.231-19.073c8.526-.39,14.062-1.756,14.608-3.071l-3.4-3.675s-4.3,3.51-11.97,4.214C194.476,350.168,187.392,367.472,186.418,370.453Z" transform="translate(3.212 3.657)" fill="#1a76ee"/>
    <path id="Path_3579" data-name="Path 3579" d="M283.891,274.732h0c1.035-2.228,1.491-5.1,1.491-9.89,0-7.58-4.991-14.324-13.146-14.324a15.844,15.844,0,0,0-1.789.111c-1.22-9.725-11.446-17.316-23.882-17.316-10.83,0-25.253,2.311-29.316,13.44-7.332-1.567-11.828,2.932-11.828,7.925,0,2.511,1.653,5.065,3.969,6.985-.577,3.146-.655,8.573-.655,14.873,0,6.491,1.121,15.126,2.187,18.307,0,0,1.54.1,1.638-.613.6-4.321.591-13.654,1.593-20.1.353-2.277,5.032-8.147,5.429-9.24.044-.123.078-.236.118-.355.048-.011.1-.021.142-.034.123,3.642,1.636,5.548,8.038,7.125a10.862,10.862,0,0,0,10.586-3.114,14.831,14.831,0,0,0,6.8,1.724c2.665,0,3.857-1.555,4.995-3.59h0c2.494-4.221,2.918-2.544,7.6-2.544,5.39,0,9.1,2.948,9.1,8.338,0,1.132-1.643,4.515-2,5.524l.011,0a2.059,2.059,0,0,0-.043,1.14c2.937,6.021-.01,4.931-3.014,10.85-.82,1.615,1.235,6.283,3.489,2.684,1.813-2.894,5.413-4.76,10.642-1.989,0,0,1.663-5.027,6.917-14.291a11.372,11.372,0,0,0,.918-1.6Z" transform="translate(3.671 0.965)" fill="#123a71"/>
    <g id="Group_502" data-name="Group 502" transform="translate(236.393 252.347)">
      <path id="Path_3580" data-name="Path 3580" d="M235.653,253.753a12.112,12.112,0,0,1,1.626-2.8,9.66,9.66,0,0,0-4.476,4.9,9.872,9.872,0,0,0,5.476,12.841,10.017,10.017,0,0,0,3.611.749A12.156,12.156,0,0,1,235.653,253.753Z" transform="translate(-232.077 -250.955)" fill="#112d52"/>
    </g>
    <g id="Group_503" data-name="Group 503" transform="translate(221.466 256.655)">
      <path id="Path_3581" data-name="Path 3581" d="M220.215,259.685a42.521,42.521,0,0,1,1.553-4.524c-1.286.674-3.311,4.355-3.9,5.795-1.351,3.287,1.262,7.019,4.6,8.39.778.32,1.057.631,1.849.648A7.986,7.986,0,0,1,220.215,259.685Z" transform="translate(-217.502 -255.161)" fill="#112d52"/>
    </g>
    <path id="Path_3582" data-name="Path 3582" d="M221.284,247.977c0,1.255.45,2.229-.654.5-1-1.567-3.663-2.005-3.663-2.005a8.018,8.018,0,0,1,.7-1.7A3.78,3.78,0,0,1,221.284,247.977Z" transform="translate(3.951 1.243)" fill="#112d52"/>
    <path id="Path_3583" data-name="Path 3583" d="M277.457,295.508a8.608,8.608,0,0,1-8.608,8.608c-4.755,0-9.378-4.717-6.832-8.733,3.815-6.02,4.838-8.734,9.594-8.734S277.457,290.754,277.457,295.508Z" transform="translate(5.022 2.255)" fill="#f36480"/>
    <path id="Path_3584" data-name="Path 3584" d="M222.713,295.459c0,4.049-3.854,7.331-8.608,7.331s-7.346-3.413-6.832-7.438c.862-6.747,4.838-7.439,9.594-7.439S222.713,291.41,222.713,295.459Z" transform="translate(3.715 2.286)" fill="#f36480"/>
    <path id="Path_3585" data-name="Path 3585" d="M182.441,388.866c6.115,5.926,23.882,10.668,23.882,10.668s.594-5.32,1.325-9.714c0,0-7.39,0-24.4-5.972Z" transform="translate(3.116 4.606)" fill="#f44968"/>
    <path id="Path_3586" data-name="Path 3586" d="M184.581,289.025c0,27.111-28.983,49.09-64.737,49.09s-74.43-9.1-64.737-49.09c6.386-26.349,27.424-45.665,63.982-34.62C153.312,264.746,184.581,261.914,184.581,289.025Z" transform="translate(0 1.399)" fill="#70aafb"/>
    <path id="Path_3587" data-name="Path 3587" d="M174.431,326.854a20.439,20.439,0,0,1-19.244-.379c-10.569-5.575,6.032-14.483,6.032-14.483C162.257,324.042,174.431,326.854,174.431,326.854Z" transform="translate(2.372 2.868)" fill="#70aafb"/>
    <text id="WELCOME_BACK_" data-name="WELCOME
BACK!" transform="translate(139.593 294.101)" fill="#fff" font-size="22" font-family="billy"><tspan x="-67.568" y="0">WELCOME</tspan><tspan x="-37.383" y="17">BACK!</tspan></text>
    <g id="Group_504" data-name="Group 504" transform="translate(303.434 354.967)">
      <path id="Path_3588" data-name="Path 3588" d="M344.863,379.954c-9.831,26.577-25.719,48.906-25.719,48.906s-26.667,14.41-20.753-8.653c4.381-17.088,37.361-44.975,37.361-44.975Z" transform="translate(-297.535 -350.569)" fill="#f36480"/>
      <path id="Path_3589" data-name="Path 3589" d="M349.543,375.218c-1.425,2.655-5.06,2.65-6,6.189,0,0-7.321.52-9.306-4.805,1.612-2.616-.315-6.145,1.37-9.136l3.058-3.189c2.316-4.793,3.548-4.257,7.159-1.6l3.979,2.589c4.588,4.133,1.709,6.1,1.174,7.536Z" transform="translate(-296.648 -350.921)" fill="#f36480"/>
      <path id="Path_3590" data-name="Path 3590" d="M343.6,366.053a1.633,1.633,0,0,1-1.911,1.267h0c-.963-.111-4.828-3.747-2.921-3.913s2.865-10.974,2.865-10.974a1.633,1.633,0,0,1,1.911-1.267h0a1.634,1.634,0,0,1,1.575,1.667Z" transform="translate(-296.551 -351.152)" fill="#f36480"/>
      <path id="Path_3591" data-name="Path 3591" d="M346.78,366.358a1.633,1.633,0,0,1-2.165.756h0c-.906-.345-3.382-5.075-1.493-4.764s5.118-9.675,5.118-9.675a1.635,1.635,0,0,1,2.166-.755h0a1.633,1.633,0,0,1,1.113,2Z" transform="translate(-296.45 -351.136)" fill="#f36480"/>
      <path id="Path_3592" data-name="Path 3592" d="M348.627,368.826a1.52,1.52,0,0,1-2.091.486h0c-.743-.435-2.016-5.283-.386-4.771s6.519-8.77,6.519-8.77a1.521,1.521,0,0,1,2.092-.487h0a1.519,1.519,0,0,1,.6,2.063Z" transform="translate(-296.379 -351.057)" fill="#f36480"/>
      <path id="Path_3593" data-name="Path 3593" d="M346.844,373.986c-.634.513-1.248.12-1.789-.549h0c-.542-.669,5.606-9.816,5.525-8.109-.116,2.428,4.988-2.4,4.988-2.4a1.519,1.519,0,0,1,2.128.282h0a1.519,1.519,0,0,1-.168,2.141Z" transform="translate(-296.387 -350.874)" fill="#f36480"/>
      <path id="Path_3594" data-name="Path 3594" d="M334.9,370.406c.719-2.469-.019-7.588-.019-7.588-.456-1.557-2.616-3.674-1.586-5.085l.565-.437c1.557-.455,3.875,2,4.331,3.561L339.9,364.6s.26.657,2.219,2.02C344.062,367.969,334.65,372.083,334.9,370.406Z" transform="translate(-296.677 -351.004)" fill="#f36480"/>
      <path id="Path_3595" data-name="Path 3595" d="M334.888,371.661s.39,3.487-.713,4.379c-.553.448,7.572,4.528,7.063,5.934-.254.7,1.333.677,2,.951.306-2.213,2.755-4.967,2.755-4.967S338.75,380.467,334.888,371.661Z" transform="translate(-296.65 -350.656)" fill="#f44968"/>
    </g>
  </g>
</svg>
